<?xml version="1.0" encoding="UTF-8"?>
<svg xmlns="http://www.w3.org/2000/svg" xmlns:xlink="http://www.w3.org/1999/xlink" version="1.1" viewBox="0 0 134.7 134.7">
  <defs>
    <style>
      .cls-1 {
        fill: url(#linear-gradient-2);
      }

      .cls-2 {
        fill: url(#linear-gradient);
      }
    </style>
    <linearGradient id="linear-gradient" x1="11.1" y1="100.8" x2="72.3" y2="50.8" gradientUnits="userSpaceOnUse">
      <stop offset="0" stop-color="#35a6b3"/>
      <stop offset="1" stop-color="#409ff4"/>
    </linearGradient>
    <linearGradient id="linear-gradient-2" x1="25.8" y1="48.8" x2="95.8" y2="92.9" gradientUnits="userSpaceOnUse">
      <stop offset="0" stop-color="#31b5a7"/>
      <stop offset="1" stop-color="#44cddd"/>
    </linearGradient>
  </defs>
  <!-- Generator: Adobe Illustrator 28.7.0, SVG Export Plug-In . SVG Version: 1.2.0 Build 136)  -->
  <g>
    <g id="Layer_1">
      <g>
        <path class="cls-2" d="M18.4,112c-1.3,0-2.7-.3-4-1-4.2-2.2-5.8-7.4-3.6-11.6L49.6,25.5c1.5-2.9,4.7-4.7,8-4.6,3.3.1,6.3,2.2,7.5,5.3l20.9,50.3c1.8,4.4-.3,9.4-4.6,11.2-4.4,1.8-9.4-.3-11.2-4.6l-13.9-33.5-30.3,57.7c-1.5,2.9-4.5,4.6-7.6,4.6Z"/>
        <path class="cls-1" d="M116.9,59.7h-9.5c-2.1,0-4.1.8-5.5,2.2-1.2.8-2.3,1.9-2.9,3.4l-9.4,19.2-8.5-20.2c-1.3-3.1-4.3-5.2-7.7-5.3-3.4,0-6.5,1.8-7.9,4.9l-9.7,20.6-20.3-46.4c-1.9-4.3-7-6.3-11.3-4.4s-6.3,7-4.4,11.3l27.9,63.6c1.3,3.1,4.4,5.1,7.7,5.1,0,0,0,0,.1,0,3.3,0,6.3-1.9,7.8-4.9l9.5-20.2,8.3,19.8c1.3,3.1,4.3,5.2,7.6,5.3,0,0,.2,0,.3,0,3.3,0,6.2-1.9,7.7-4.8l16.3-33.2h4c4.4,0,8-3.6,8-8s-3.6-8-8-8Z"/>
      </g>
    </g>
  </g>
</svg>